<?xml version="1.0" standalone="no"?>
<!DOCTYPE svg PUBLIC "-//W3C//DTD SVG 20010904//EN"
 "http://www.w3.org/TR/2001/REC-SVG-20010904/DTD/svg10.dtd">
<svg version="1.0" xmlns="http://www.w3.org/2000/svg"
 width="200.000000pt" height="200.000000pt" viewBox="0 0 200.000000 200.000000"
 preserveAspectRatio="xMidYMid meet">

<g transform="translate(0.000000,200.000000) scale(0.100000,-0.100000)"
fill="#000000" stroke="none">
<path d="M903 1919 c-516 -49 -884 -508 -824 -1026 48 -415 331 -727 731 -808
127 -26 344 -17 463 19 314 94 543 329 629 648 19 70 23 109 23 243 0 136 -3
172 -23 244 -123 450 -528 725 -999 680z m187 -60 c214 -21 385 -101 531 -248
166 -167 249 -371 249 -616 0 -182 -48 -345 -145 -491 -128 -191 -331 -324
-561 -364 -92 -16 -317 -8 -399 15 -155 43 -332 154 -426 267 -273 328 -275
809 -4 1142 128 157 351 273 570 296 38 4 73 8 76 9 4 0 53 -4 109 -10z"/>
<path d="M708 1499 c-49 -28 -88 -56 -88 -62 1 -7 7 -41 15 -77 13 -63 13 -66
-9 -100 -13 -19 -32 -50 -42 -69 -16 -28 -31 -38 -84 -56 l-65 -22 -3 -102
c-2 -60 2 -108 8 -115 5 -7 36 -21 68 -30 56 -17 58 -19 96 -91 l39 -73 -13
-65 c-6 -36 -9 -70 -6 -75 7 -12 163 -102 177 -102 6 0 32 17 58 38 l46 39 91
-2 92 -1 51 -43 c58 -49 52 -50 164 16 l77 45 -6 37 c-3 20 -10 53 -14 73 -6
27 -4 41 6 49 7 6 27 39 44 72 30 60 33 63 93 83 l62 21 3 105 c3 119 5 115
-77 144 -30 10 -59 28 -66 39 -6 11 -26 44 -44 74 -32 54 -32 55 -21 117 7 35
9 68 5 73 -10 16 -157 101 -175 101 -8 0 -38 -19 -65 -42 -49 -43 -51 -43
-126 -43 -76 1 -76 1 -131 48 -30 26 -59 47 -64 47 -5 0 -48 -23 -96 -51z
m145 -62 l52 -44 96 1 96 1 49 42 50 41 56 -34 56 -34 -9 -38 c-15 -65 -10
-90 31 -154 23 -34 43 -72 46 -84 4 -17 22 -28 70 -45 l64 -23 0 -67 0 -67
-52 -18 c-66 -21 -75 -28 -83 -64 -3 -16 -24 -54 -46 -85 l-40 -57 12 -60 c14
-68 13 -69 -64 -109 l-38 -20 -49 42 c-48 41 -50 41 -107 35 -32 -4 -79 -3
-105 2 -45 9 -48 8 -90 -29 -23 -21 -46 -38 -51 -39 -4 0 -31 14 -61 30 l-53
30 13 65 13 64 -33 50 c-19 28 -39 66 -46 85 -9 30 -20 38 -66 56 -30 11 -59
20 -64 20 -6 0 -10 31 -10 69 l0 69 64 22 c56 18 66 26 75 53 6 18 28 55 47
84 35 51 36 53 25 103 -18 82 -16 87 42 120 28 16 54 30 55 30 2 0 27 -20 55
-43z"/>
<path d="M888 1171 c-121 -77 -119 -268 5 -345 78 -48 202 -33 258 30 85 97
63 256 -45 319 -64 37 -155 36 -218 -4z m208 -63 c61 -57 64 -152 6 -210 -58
-58 -153 -55 -209 6 -30 32 -33 42 -33 95 0 50 4 65 27 91 33 40 54 49 121 49
46 1 57 -3 88 -31z"/>
</g>
</svg>
